<svg width="176" height="84" viewBox="0 0 176 84" fill="none" xmlns="http://www.w3.org/2000/svg">
<circle cx="24.5" cy="35.5" r="6.5" fill="white"/>
<circle cx="24.5" cy="35.5" r="6.5" fill="white"/>
<circle cx="24.5" cy="35.5" r="6.5" fill="white"/>
<circle cx="24.5" cy="35.5" r="6.5" fill="white"/>
<circle cx="68.5" cy="35.5" r="6.5" fill="white"/>
<circle cx="68.5" cy="35.5" r="6.5" fill="white"/>
<circle cx="68.5" cy="35.5" r="6.5" fill="white"/>
<circle cx="68.5" cy="35.5" r="6.5" fill="white"/>
<path d="M25.6457 73.3551C25.2895 74.1031 25.6071 74.9981 26.3551 75.3543L38.5437 81.1584C39.2917 81.5146 40.1867 81.197 40.5429 80.449C40.8991 79.7011 40.5815 78.806 39.8335 78.4498L28.9992 73.2906L34.1584 62.4563C34.5146 61.7083 34.197 60.8133 33.449 60.4571C32.701 60.1009 31.806 60.4185 31.4498 61.1665L25.6457 73.3551ZM57.4984 61.5864L26.4984 72.5864L27.5016 75.4136L58.5016 64.4136L57.4984 61.5864Z" fill="white"/>
<path d="M37.6895 63.384C33.2522 63.384 29.2415 62.4027 25.6575 60.44C22.1162 58.4773 19.3215 55.768 17.2735 52.312C15.2682 48.8133 14.2655 44.9093 14.2655 40.6C14.2655 36.2907 15.2682 32.408 17.2735 28.952C19.3215 25.4533 22.1375 22.7227 25.7215 20.76C29.3055 18.7973 33.3162 17.816 37.7535 17.816C41.0815 17.816 44.1535 18.3707 46.9695 19.48C49.7855 20.5893 52.1748 22.2107 54.1375 24.344L51.1295 27.352C47.6308 23.8107 43.2148 22.04 37.8815 22.04C34.3402 22.04 31.1188 22.8507 28.2175 24.472C25.3162 26.0933 23.0335 28.312 21.3695 31.128C19.7482 33.944 18.9375 37.1013 18.9375 40.6C18.9375 44.0987 19.7482 47.256 21.3695 50.072C23.0335 52.888 25.3162 55.1067 28.2175 56.728C31.1188 58.3493 34.3402 59.16 37.8815 59.16C43.2575 59.16 47.6735 57.368 51.1295 53.784L54.1375 56.792C52.1748 58.9253 49.7642 60.568 46.9055 61.72C44.0895 62.8293 41.0175 63.384 37.6895 63.384ZM82.752 63.384C78.3147 63.384 74.304 62.4027 70.72 60.44C67.1787 58.4773 64.384 55.768 62.336 52.312C60.3307 48.8133 59.328 44.9093 59.328 40.6C59.328 36.2907 60.3307 32.408 62.336 28.952C64.384 25.4533 67.2 22.7227 70.784 20.76C74.368 18.7973 78.3787 17.816 82.816 17.816C86.144 17.816 89.216 18.3707 92.032 19.48C94.848 20.5893 97.2373 22.2107 99.2 24.344L96.192 27.352C92.6933 23.8107 88.2773 22.04 82.944 22.04C79.4027 22.04 76.1813 22.8507 73.28 24.472C70.3787 26.0933 68.096 28.312 66.432 31.128C64.8107 33.944 64 37.1013 64 40.6C64 44.0987 64.8107 47.256 66.432 50.072C68.096 52.888 70.3787 55.1067 73.28 56.728C76.1813 58.3493 79.4027 59.16 82.944 59.16C88.32 59.16 92.736 57.368 96.192 53.784L99.2 56.792C97.2373 58.9253 94.8267 60.568 91.968 61.72C89.152 62.8293 86.08 63.384 82.752 63.384ZM127.943 63.384C123.505 63.384 119.473 62.4027 115.847 60.44C112.263 58.4347 109.447 55.704 107.399 52.248C105.393 48.792 104.391 44.9093 104.391 40.6C104.391 36.2907 105.393 32.408 107.399 28.952C109.447 25.496 112.263 22.7867 115.847 20.824C119.473 18.8187 123.505 17.816 127.943 17.816C132.38 17.816 136.369 18.7973 139.911 20.76C143.495 22.7227 146.311 25.4533 148.359 28.952C150.407 32.408 151.431 36.2907 151.431 40.6C151.431 44.9093 150.407 48.8133 148.359 52.312C146.311 55.768 143.495 58.4773 139.911 60.44C136.369 62.4027 132.38 63.384 127.943 63.384ZM127.943 59.16C131.484 59.16 134.684 58.3707 137.543 56.792C140.401 55.1707 142.641 52.952 144.263 50.136C145.884 47.2773 146.695 44.0987 146.695 40.6C146.695 37.1013 145.884 33.944 144.263 31.128C142.641 28.2693 140.401 26.0507 137.543 24.472C134.684 22.8507 131.484 22.04 127.943 22.04C124.401 22.04 121.18 22.8507 118.279 24.472C115.42 26.0507 113.159 28.2693 111.495 31.128C109.873 33.944 109.062 37.1013 109.062 40.6C109.062 44.0987 109.873 47.2773 111.495 50.136C113.159 52.952 115.42 55.1707 118.279 56.792C121.18 58.3707 124.401 59.16 127.943 59.16ZM160.284 63.32C159.345 63.32 158.535 62.9787 157.852 62.296C157.212 61.6133 156.892 60.7813 156.892 59.8C156.892 58.8187 157.212 58.008 157.852 57.368C158.535 56.6853 159.345 56.344 160.284 56.344C161.223 56.344 162.033 56.6853 162.716 57.368C163.399 58.008 163.74 58.8187 163.74 59.8C163.74 60.7813 163.399 61.6133 162.716 62.296C162.033 62.9787 161.223 63.32 160.284 63.32Z" fill="white"/>
</svg>
